<?xml version="1.0" encoding="UTF-8"?>
<svg id="Layer_1" data-name="Layer 1" xmlns="http://www.w3.org/2000/svg" viewBox="0 0 128 128">
  <defs>
    <style>
      .cls-1 {
        fill: #5fc0a4;
      }

      .cls-2 {
        fill: #fff;
      }
    </style>
  </defs>
  <path class="cls-2" d="m89.73,18.74c-.31,1.04-.52,2.12-.94,3.11-4.73,11.1-9.49,22.2-14.24,33.29-5.87,13.7-11.75,27.39-17.62,41.08-2.06,4.8-4.14,9.6-6.18,14.42-.82,1.93-2.01,3.46-3.95,4.16-2.5.91-4.73.34-6.55-1.65-1.86-2.04-2.33-4.46-1.29-7.06,1.39-3.48,2.92-6.9,4.39-10.35,8.55-19.94,17.1-39.89,25.65-59.83,2.8-6.53,5.58-13.06,8.43-19.57,1.52-3.46,4.61-5,7.67-3.99,2.64.87,4.47,3.46,4.64,6.39Z"/>
  <path class="cls-1" d="m127.93,65.87c.28,2.04-.56,3.58-1.82,4.9-7.71,8.11-15.43,16.23-23.17,24.31-2.61,2.73-6.56,2.78-9.03.23-2.57-2.66-2.53-6.68.17-9.54,5.78-6.11,11.59-12.18,17.39-18.26q1.54-1.62.03-3.21c-5.77-6.06-11.54-12.1-17.3-18.17-2.25-2.37-2.77-5.14-1.53-7.8,1.69-3.61,5.85-4.83,9.07-2.63.56.38,1.07.85,1.54,1.34,7.49,7.85,14.98,15.7,22.46,23.56,1.4,1.47,2.54,3.07,2.18,5.27Z"/>
  <path class="cls-1" d="m.05,63.61c-.2-1.9.49-3.37,1.72-4.65,7.82-8.19,15.62-16.4,23.45-24.59,2.26-2.36,5.38-2.71,7.92-.96,2.49,1.71,3.47,4.94,2.37,7.88-.2.52-.47,1.05-.85,1.44-5.39,5.57-10.81,11.12-16.22,16.68-.93.95-1.85,1.91-2.74,2.9-.96,1.07-1,1.66.02,2.69,1.93,1.94,3.98,3.75,5.87,5.73,4.06,4.24,7.98,8.64,12.1,12.81,1.8,1.83,2.65,3.77,2.09,6.33-1.08,4.92-6.78,6.78-10.29,3.31-2.16-2.14-4.22-4.39-6.32-6.6-5.71-5.99-11.41-12-17.15-17.97-1.35-1.41-2.23-2.95-1.97-4.98Z"/>
</svg>